<mxfile host="Electron" modified="2023-12-20T11:17:33.396Z" agent="Mozilla/5.0 (Windows NT 10.0; Win64; x64) AppleWebKit/537.36 (KHTML, like Gecko) draw.io/22.1.2 Chrome/114.0.5735.289 Electron/25.9.4 Safari/537.36" etag="8WBWbk88Xb9VHUIAV5BR" version="22.1.2" type="device">
  <diagram name="ページ1" id="_mOyR1zI28cv9_X5QCt4">
    <mxGraphModel dx="1208" dy="1068" grid="0" gridSize="10" guides="1" tooltips="1" connect="1" arrows="1" fold="1" page="0" pageScale="1" pageWidth="827" pageHeight="1169" math="0" shadow="0">
      <root>
        <mxCell id="0" />
        <mxCell id="1" parent="0" />
        <mxCell id="SJl6Se_WTe3YbKs1uJ7j-6" style="edgeStyle=orthogonalEdgeStyle;rounded=0;orthogonalLoop=1;jettySize=auto;html=1;exitX=1;exitY=0.5;exitDx=0;exitDy=0;" edge="1" parent="1" source="SJl6Se_WTe3YbKs1uJ7j-2" target="SJl6Se_WTe3YbKs1uJ7j-3">
          <mxGeometry relative="1" as="geometry">
            <Array as="points">
              <mxPoint x="241" y="330" />
              <mxPoint x="241" y="330" />
            </Array>
          </mxGeometry>
        </mxCell>
        <mxCell id="SJl6Se_WTe3YbKs1uJ7j-34" value="ログイン" style="edgeLabel;html=1;align=center;verticalAlign=middle;resizable=0;points=[];" vertex="1" connectable="0" parent="SJl6Se_WTe3YbKs1uJ7j-6">
          <mxGeometry x="-0.1143" relative="1" as="geometry">
            <mxPoint as="offset" />
          </mxGeometry>
        </mxCell>
        <mxCell id="SJl6Se_WTe3YbKs1uJ7j-36" style="edgeStyle=orthogonalEdgeStyle;rounded=0;orthogonalLoop=1;jettySize=auto;html=1;exitX=0.25;exitY=0;exitDx=0;exitDy=0;entryX=0.25;entryY=1;entryDx=0;entryDy=0;" edge="1" parent="1" source="SJl6Se_WTe3YbKs1uJ7j-2" target="SJl6Se_WTe3YbKs1uJ7j-8">
          <mxGeometry relative="1" as="geometry" />
        </mxCell>
        <mxCell id="SJl6Se_WTe3YbKs1uJ7j-38" value="登録" style="edgeLabel;html=1;align=center;verticalAlign=middle;resizable=0;points=[];" vertex="1" connectable="0" parent="SJl6Se_WTe3YbKs1uJ7j-36">
          <mxGeometry x="0.0242" y="2" relative="1" as="geometry">
            <mxPoint as="offset" />
          </mxGeometry>
        </mxCell>
        <mxCell id="SJl6Se_WTe3YbKs1uJ7j-2" value="ログイン画面" style="rounded=1;whiteSpace=wrap;html=1;" vertex="1" parent="1">
          <mxGeometry x="90" y="300" width="120" height="60" as="geometry" />
        </mxCell>
        <mxCell id="SJl6Se_WTe3YbKs1uJ7j-14" style="edgeStyle=orthogonalEdgeStyle;rounded=0;orthogonalLoop=1;jettySize=auto;html=1;exitX=1;exitY=0.5;exitDx=0;exitDy=0;entryX=0;entryY=0.5;entryDx=0;entryDy=0;" edge="1" parent="1" source="SJl6Se_WTe3YbKs1uJ7j-3" target="SJl6Se_WTe3YbKs1uJ7j-13">
          <mxGeometry relative="1" as="geometry" />
        </mxCell>
        <mxCell id="SJl6Se_WTe3YbKs1uJ7j-26" style="edgeStyle=orthogonalEdgeStyle;rounded=0;orthogonalLoop=1;jettySize=auto;html=1;exitX=0.5;exitY=0;exitDx=0;exitDy=0;entryX=0.5;entryY=1;entryDx=0;entryDy=0;" edge="1" parent="1" source="SJl6Se_WTe3YbKs1uJ7j-3" target="SJl6Se_WTe3YbKs1uJ7j-25">
          <mxGeometry relative="1" as="geometry" />
        </mxCell>
        <mxCell id="SJl6Se_WTe3YbKs1uJ7j-32" style="edgeStyle=orthogonalEdgeStyle;rounded=0;orthogonalLoop=1;jettySize=auto;html=1;exitX=0.25;exitY=1;exitDx=0;exitDy=0;entryX=0.5;entryY=1;entryDx=0;entryDy=0;" edge="1" parent="1" source="SJl6Se_WTe3YbKs1uJ7j-3" target="SJl6Se_WTe3YbKs1uJ7j-2">
          <mxGeometry relative="1" as="geometry" />
        </mxCell>
        <mxCell id="SJl6Se_WTe3YbKs1uJ7j-33" value="ログアウト" style="edgeLabel;html=1;align=center;verticalAlign=middle;resizable=0;points=[];" vertex="1" connectable="0" parent="SJl6Se_WTe3YbKs1uJ7j-32">
          <mxGeometry x="-0.0348" y="-3" relative="1" as="geometry">
            <mxPoint as="offset" />
          </mxGeometry>
        </mxCell>
        <mxCell id="SJl6Se_WTe3YbKs1uJ7j-46" style="edgeStyle=orthogonalEdgeStyle;rounded=0;orthogonalLoop=1;jettySize=auto;html=1;exitX=0.5;exitY=1;exitDx=0;exitDy=0;entryX=0.5;entryY=0;entryDx=0;entryDy=0;" edge="1" parent="1" source="SJl6Se_WTe3YbKs1uJ7j-3" target="SJl6Se_WTe3YbKs1uJ7j-45">
          <mxGeometry relative="1" as="geometry" />
        </mxCell>
        <mxCell id="SJl6Se_WTe3YbKs1uJ7j-3" value="TOP" style="rounded=1;whiteSpace=wrap;html=1;" vertex="1" parent="1">
          <mxGeometry x="280" y="300" width="120" height="60" as="geometry" />
        </mxCell>
        <mxCell id="SJl6Se_WTe3YbKs1uJ7j-37" style="edgeStyle=orthogonalEdgeStyle;rounded=0;orthogonalLoop=1;jettySize=auto;html=1;exitX=0.75;exitY=1;exitDx=0;exitDy=0;entryX=0.75;entryY=0;entryDx=0;entryDy=0;" edge="1" parent="1" source="SJl6Se_WTe3YbKs1uJ7j-8" target="SJl6Se_WTe3YbKs1uJ7j-2">
          <mxGeometry relative="1" as="geometry" />
        </mxCell>
        <mxCell id="SJl6Se_WTe3YbKs1uJ7j-39" value="登録完了" style="edgeLabel;html=1;align=center;verticalAlign=middle;resizable=0;points=[];" vertex="1" connectable="0" parent="SJl6Se_WTe3YbKs1uJ7j-37">
          <mxGeometry x="-0.0531" y="2" relative="1" as="geometry">
            <mxPoint as="offset" />
          </mxGeometry>
        </mxCell>
        <mxCell id="SJl6Se_WTe3YbKs1uJ7j-8" value="ユーザー登録" style="rounded=1;whiteSpace=wrap;html=1;" vertex="1" parent="1">
          <mxGeometry x="90" y="171" width="120" height="60" as="geometry" />
        </mxCell>
        <mxCell id="SJl6Se_WTe3YbKs1uJ7j-16" style="edgeStyle=orthogonalEdgeStyle;rounded=0;orthogonalLoop=1;jettySize=auto;html=1;exitX=1;exitY=0.5;exitDx=0;exitDy=0;entryX=0;entryY=0.5;entryDx=0;entryDy=0;" edge="1" parent="1" source="SJl6Se_WTe3YbKs1uJ7j-13" target="SJl6Se_WTe3YbKs1uJ7j-15">
          <mxGeometry relative="1" as="geometry" />
        </mxCell>
        <mxCell id="SJl6Se_WTe3YbKs1uJ7j-13" value="サイト別トップ" style="rounded=1;whiteSpace=wrap;html=1;" vertex="1" parent="1">
          <mxGeometry x="466" y="300" width="120" height="60" as="geometry" />
        </mxCell>
        <mxCell id="SJl6Se_WTe3YbKs1uJ7j-41" style="edgeStyle=orthogonalEdgeStyle;rounded=0;orthogonalLoop=1;jettySize=auto;html=1;exitX=1;exitY=0.5;exitDx=0;exitDy=0;entryX=0;entryY=0.5;entryDx=0;entryDy=0;" edge="1" parent="1" source="SJl6Se_WTe3YbKs1uJ7j-15" target="SJl6Se_WTe3YbKs1uJ7j-40">
          <mxGeometry relative="1" as="geometry" />
        </mxCell>
        <mxCell id="SJl6Se_WTe3YbKs1uJ7j-15" value="問題" style="rounded=1;whiteSpace=wrap;html=1;" vertex="1" parent="1">
          <mxGeometry x="631" y="300" width="120" height="60" as="geometry" />
        </mxCell>
        <mxCell id="SJl6Se_WTe3YbKs1uJ7j-19" value="結果" style="rounded=1;whiteSpace=wrap;html=1;" vertex="1" parent="1">
          <mxGeometry x="975" y="300" width="120" height="60" as="geometry" />
        </mxCell>
        <mxCell id="SJl6Se_WTe3YbKs1uJ7j-30" style="edgeStyle=orthogonalEdgeStyle;rounded=0;orthogonalLoop=1;jettySize=auto;html=1;exitX=1;exitY=0.25;exitDx=0;exitDy=0;entryX=0;entryY=0.25;entryDx=0;entryDy=0;" edge="1" parent="1" source="SJl6Se_WTe3YbKs1uJ7j-25" target="SJl6Se_WTe3YbKs1uJ7j-27">
          <mxGeometry relative="1" as="geometry" />
        </mxCell>
        <mxCell id="SJl6Se_WTe3YbKs1uJ7j-25" value="ユーザー情報&lt;br&gt;詳細" style="rounded=1;whiteSpace=wrap;html=1;" vertex="1" parent="1">
          <mxGeometry x="280" y="171" width="120" height="60" as="geometry" />
        </mxCell>
        <mxCell id="SJl6Se_WTe3YbKs1uJ7j-31" style="edgeStyle=orthogonalEdgeStyle;rounded=0;orthogonalLoop=1;jettySize=auto;html=1;exitX=0;exitY=0.75;exitDx=0;exitDy=0;entryX=1;entryY=0.75;entryDx=0;entryDy=0;" edge="1" parent="1" source="SJl6Se_WTe3YbKs1uJ7j-27" target="SJl6Se_WTe3YbKs1uJ7j-25">
          <mxGeometry relative="1" as="geometry" />
        </mxCell>
        <mxCell id="SJl6Se_WTe3YbKs1uJ7j-27" value="ユーザー情報&lt;br&gt;編集" style="rounded=1;whiteSpace=wrap;html=1;" vertex="1" parent="1">
          <mxGeometry x="451" y="171" width="120" height="60" as="geometry" />
        </mxCell>
        <mxCell id="SJl6Se_WTe3YbKs1uJ7j-42" style="edgeStyle=orthogonalEdgeStyle;rounded=0;orthogonalLoop=1;jettySize=auto;html=1;exitX=0.5;exitY=0;exitDx=0;exitDy=0;entryX=0.5;entryY=0;entryDx=0;entryDy=0;" edge="1" parent="1" source="SJl6Se_WTe3YbKs1uJ7j-40" target="SJl6Se_WTe3YbKs1uJ7j-15">
          <mxGeometry relative="1" as="geometry" />
        </mxCell>
        <mxCell id="SJl6Se_WTe3YbKs1uJ7j-44" style="edgeStyle=orthogonalEdgeStyle;rounded=0;orthogonalLoop=1;jettySize=auto;html=1;exitX=1;exitY=0.5;exitDx=0;exitDy=0;entryX=0;entryY=0.5;entryDx=0;entryDy=0;" edge="1" parent="1" source="SJl6Se_WTe3YbKs1uJ7j-40" target="SJl6Se_WTe3YbKs1uJ7j-19">
          <mxGeometry relative="1" as="geometry" />
        </mxCell>
        <mxCell id="SJl6Se_WTe3YbKs1uJ7j-40" value="解答" style="rounded=1;whiteSpace=wrap;html=1;" vertex="1" parent="1">
          <mxGeometry x="803" y="300" width="120" height="60" as="geometry" />
        </mxCell>
        <mxCell id="SJl6Se_WTe3YbKs1uJ7j-45" value="学習履歴" style="rounded=1;whiteSpace=wrap;html=1;" vertex="1" parent="1">
          <mxGeometry x="280" y="426" width="120" height="60" as="geometry" />
        </mxCell>
      </root>
    </mxGraphModel>
  </diagram>
</mxfile>
